<?xml version="1.0" encoding="utf-8"?>
<svg version="1.1" width="20" height="20" viewBox="0 0 20 20" xmlns="http://www.w3.org/2000/svg">
  <title>folder</title>
  <path d="M -0.006 2.984 C -0.006 1.884 0.894 0.984 1.994 0.984 L 8.994 0.984 L 10.994 2.984 L 17.994 2.984 C 19.099 2.984 19.994 3.879 19.994 4.984 L 19.994 10.827 C 19.618 10.462 15.439 6.405 15.434 6.395 C 15.434 6.4 15.424 7.815 15.413 9.511 L 9.546 9.511 C 9.493 9.506 9.439 9.504 9.385 9.504 C 8.426 9.504 7.641 10.244 7.569 11.185 L 7.565 11.185 L 7.565 11.264 C 7.564 11.284 7.564 11.305 7.564 11.325 C 7.564 11.345 7.564 11.366 7.565 11.386 L 7.565 16.984 L 1.994 16.984 C 0.889 16.984 -0.006 16.089 -0.006 14.984 L -0.006 2.984 Z M 19.994 14.984 C 19.994 16.089 19.099 16.984 17.994 16.984 L 11.172 16.984 L 11.172 12.35 L 15.395 12.35 C 15.384 13.952 15.376 15.249 15.378 15.249 C 15.382 15.249 19.61 11.337 19.994 10.893 L 19.994 14.984 Z"/>
</svg>